<?xml version="1.0" standalone="no"?>
<!DOCTYPE svg PUBLIC "-//W3C//DTD SVG 20010904//EN"
 "http://www.w3.org/TR/2001/REC-SVG-20010904/DTD/svg10.dtd">
<svg version="1.0" xmlns="http://www.w3.org/2000/svg"
 width="1698.000000pt" height="1060.000000pt" viewBox="0 0 1698.000000 1060.000000"
 preserveAspectRatio="xMidYMid meet">

<g transform="translate(0.000000,1060.000000) scale(0.100000,-0.100000)"
fill="#000000" stroke="none">
<path d="M6183 10533 c111 -3 154 -7 172 -19 12 -8 45 -17 73 -21 55 -6 130 4
116 16 -25 21 -129 31 -312 29 -187 -2 -189 -3 -49 -5z"/>
<path d="M5616 10511 c-8 -13 -7 -13 62 -11 50 1 69 -11 36 -24 -27 -10 -102
-7 -110 5 -10 17 -189 5 -238 -16 -22 -9 -64 -17 -94 -17 -40 -1 -59 -5 -70
-19 -13 -15 -25 -18 -62 -13 -30 4 -57 0 -82 -10 -21 -9 -50 -16 -66 -16 -15
0 -36 -6 -46 -13 -15 -11 -15 -13 10 -15 36 -3 40 -8 17 -21 -14 -7 -27 -6
-47 5 -37 19 -54 18 -101 -6 -22 -11 -55 -20 -75 -20 -20 0 -45 -7 -56 -15
-10 -8 -30 -15 -44 -15 -14 0 -43 -9 -63 -19 -21 -10 -88 -36 -149 -56 -62
-20 -130 -46 -152 -57 -23 -12 -59 -27 -81 -34 -33 -9 -40 -16 -37 -34 2 -20
-1 -22 -31 -16 -32 6 -79 -10 -167 -58 -14 -8 -72 -38 -130 -66 -58 -29 -108
-57 -111 -62 -3 -5 -28 -17 -55 -27 -34 -13 -49 -25 -49 -38 0 -13 -6 -17 -23
-15 -21 3 -95 -41 -242 -141 -14 -10 -55 -38 -92 -62 -37 -25 -70 -49 -73 -55
-3 -5 -38 -30 -78 -56 -84 -56 -175 -128 -232 -184 -22 -22 -46 -40 -53 -40
-7 0 -81 -70 -165 -154 -83 -85 -158 -161 -166 -168 -17 -16 -156 -157 -176
-179 -8 -9 -15 -19 -15 -22 0 -3 -20 -27 -44 -52 -41 -41 -148 -175 -171 -214
-5 -9 -24 -33 -42 -53 -18 -21 -44 -54 -57 -75 -14 -21 -39 -57 -56 -81 -16
-23 -30 -48 -30 -54 0 -6 -9 -20 -21 -32 -47 -47 -201 -310 -315 -536 -113
-226 -159 -330 -217 -495 -20 -55 -45 -125 -57 -155 -12 -30 -26 -68 -30 -85
-5 -16 -15 -50 -24 -75 -8 -25 -20 -65 -26 -90 -6 -25 -17 -67 -25 -95 -42
-153 -93 -383 -100 -459 -3 -32 -10 -66 -15 -77 -6 -10 -14 -69 -19 -131 -5
-62 -15 -126 -21 -143 -16 -40 -15 -935 0 -1020 6 -33 15 -100 20 -150 4 -49
12 -110 18 -135 6 -25 13 -74 17 -110 4 -36 13 -87 20 -115 23 -87 45 -189 45
-208 0 -11 9 -49 19 -85 10 -37 27 -96 37 -132 32 -118 152 -474 183 -543 17
-38 31 -72 31 -77 0 -4 27 -66 61 -136 33 -71 70 -149 82 -174 33 -72 197
-371 227 -415 15 -22 57 -85 94 -140 37 -55 90 -132 119 -171 29 -39 76 -105
105 -145 135 -188 526 -603 697 -742 39 -31 111 -91 160 -133 50 -42 113 -92
140 -110 28 -19 82 -57 120 -85 152 -110 303 -207 445 -287 25 -13 50 -28 55
-32 26 -21 459 -230 475 -230 5 0 43 -16 84 -35 41 -19 80 -35 85 -35 6 0 25
-6 43 -14 39 -16 77 -29 178 -61 41 -14 113 -37 160 -53 77 -26 158 -47 340
-88 36 -8 88 -21 115 -29 28 -7 86 -18 130 -24 44 -6 114 -16 155 -21 41 -6
100 -15 130 -22 168 -35 1115 -41 1225 -7 17 5 84 16 150 24 153 19 256 37
375 65 52 12 117 26 145 32 27 5 62 16 77 24 15 8 37 14 49 14 12 0 42 7 68
15 25 9 109 36 186 61 77 25 160 54 185 64 25 10 74 30 110 44 252 97 495 218
795 396 413 245 825 592 1202 1012 63 71 119 128 124 128 22 0 27 45 9 75 -10
17 -21 41 -25 55 -4 14 -27 76 -52 139 -113 289 -273 793 -273 860 0 13 -6 37
-14 54 -8 18 -26 82 -41 142 -15 61 -31 118 -36 127 -5 10 -9 30 -9 45 0 15
-9 63 -19 108 -21 87 -47 231 -56 310 -4 28 -10 64 -15 80 -17 58 -40 221 -50
350 -5 72 -15 157 -20 190 -6 33 -14 120 -19 193 -9 140 -22 178 -41 126 -7
-16 -16 -54 -21 -84 -27 -160 -97 -446 -125 -507 -8 -17 -14 -36 -14 -41 0
-16 -106 -277 -134 -330 -14 -26 -36 -72 -51 -102 -75 -157 -298 -509 -380
-600 -23 -25 -55 -63 -72 -85 -17 -22 -104 -112 -194 -200 -220 -217 -226
-223 -257 -242 -15 -10 -63 -45 -107 -78 -87 -65 -221 -155 -306 -206 -147
-86 -495 -249 -577 -269 -18 -4 -38 -13 -45 -18 -7 -6 -31 -15 -52 -21 -22 -5
-71 -19 -110 -31 -38 -12 -86 -25 -105 -29 -19 -5 -62 -16 -95 -25 -32 -9 -73
-16 -91 -16 -17 0 -51 -7 -74 -15 -23 -8 -61 -15 -84 -15 -22 0 -77 -7 -121
-16 -60 -12 -150 -16 -360 -17 -287 -2 -374 5 -577 44 -53 11 -108 19 -122 19
-15 0 -80 16 -146 35 -66 19 -127 35 -137 35 -10 0 -30 6 -44 14 -15 7 -60 23
-100 35 -73 22 -114 37 -196 73 -23 10 -45 18 -48 18 -3 0 -67 30 -143 67
-151 73 -289 151 -391 221 -36 25 -94 65 -129 88 -130 88 -356 288 -503 444
-63 67 -118 129 -123 138 -5 10 -30 42 -56 72 -25 30 -54 66 -63 80 -10 14
-37 52 -62 85 -41 56 -111 164 -162 252 -33 59 -188 373 -205 418 -9 22 -28
68 -42 101 -14 34 -26 70 -26 81 0 10 -4 23 -9 28 -5 6 -19 46 -30 90 -12 44
-28 96 -36 115 -7 19 -17 57 -20 83 -4 26 -13 63 -21 82 -8 19 -14 60 -14 92
-1 32 -7 69 -15 83 -8 14 -14 50 -15 81 0 31 -7 100 -15 155 -17 112 -21 571
-6 633 5 20 12 74 16 120 4 46 11 93 16 105 5 11 15 62 23 111 21 127 33 184
50 230 8 22 15 48 16 58 0 10 11 51 24 90 13 40 27 85 31 101 3 16 21 61 39
100 19 39 39 89 46 111 7 22 19 51 26 65 8 14 37 72 65 130 28 58 56 112 60
120 5 8 15 26 22 40 6 14 37 64 68 110 31 47 83 125 115 174 33 48 69 103 81
121 12 18 34 42 49 54 15 12 36 36 47 54 11 18 33 46 51 62 51 50 152 169 159
188 3 9 14 17 22 17 9 0 47 30 85 68 37 37 92 85 120 107 29 22 62 49 74 61
11 11 39 31 61 44 22 13 54 35 70 48 64 52 151 112 161 112 6 0 19 9 29 20 10
11 26 20 36 20 10 0 32 14 49 30 17 17 35 30 41 30 6 0 23 8 37 18 15 10 61
33 102 52 41 18 104 50 140 70 36 20 99 47 140 60 41 12 100 33 130 46 30 13
84 31 120 40 36 8 94 25 130 36 35 12 88 24 118 27 74 8 66 25 -15 31 -65 5
-66 6 -37 16 23 9 67 9 164 2 115 -9 138 -8 165 5 23 12 72 17 205 20 171 4
216 10 204 28 -3 5 4 9 15 9 12 0 21 -4 21 -9 0 -11 62 -20 220 -30 97 -6 130
-5 147 6 23 13 64 5 78 -16 3 -6 36 -11 73 -11 54 0 72 -4 102 -25 31 -21 43
-24 75 -17 l38 8 -29 19 c-16 11 -38 22 -48 25 -12 3 -23 19 -29 39 -8 31 -10
33 -39 27 -18 -3 -39 -13 -48 -21 -12 -11 -29 -13 -64 -9 -25 4 -49 11 -52 15
-7 12 -54 11 -54 -1 0 -6 -34 -10 -81 -10 -71 0 -79 2 -65 15 8 8 23 15 34 15
11 0 34 3 52 6 l32 7 -23 13 c-16 9 -64 13 -141 14 l-118 0 0 28 c0 15 -3 44
-6 65 -5 24 -3 37 5 37 6 0 11 -13 11 -30 l0 -30 131 4 c114 3 133 6 149 24
18 19 18 20 -3 30 -40 19 -55 21 -163 23 l-106 1 6 46 c3 24 6 280 6 568 l0
524 105 0 c63 0 105 -4 105 -10 0 -6 59 -10 156 -10 125 0 158 3 170 15 13 13
57 15 268 15 222 0 255 2 267 16 12 14 27 16 104 10 56 -5 96 -13 106 -22 19
-17 30 -17 81 -2 31 9 38 16 36 32 -2 17 -9 21 -38 19 -128 -6 -834 -9 -1073
-4 l-287 6 0 -30 0 -30 -132 1 -133 1 130 -7 c124 -6 126 -6 39 -8 -50 -1
-139 1 -197 5 -89 5 -107 9 -106 22 0 10 2 12 6 4 3 -9 27 -13 69 -13 57 0 64
2 64 20 0 19 7 20 125 20 l125 0 0 39 c0 21 6 44 14 50 10 8 87 11 260 11 158
-1 252 2 263 9 41 25 -18 32 -265 36 -136 2 -295 7 -354 10 -76 4 -108 3 -108
-5 0 -8 -49 -10 -165 -8 l-164 3 -3 -25 c-3 -24 -5 -25 -88 -26 -100 0 -110 2
-110 27 0 17 -23 26 -54 20 -5 -1 -13 4 -17 10 -6 10 -40 12 -128 10 -104 -2
-122 0 -127 14 -8 21 -5 23 42 31 21 3 43 10 49 15 14 14 53 11 79 -7 20 -12
53 -15 185 -12 118 2 161 6 161 15 0 23 36 32 91 24 29 -5 55 -14 57 -20 5
-14 128 -15 137 -1 3 6 17 10 31 10 13 0 24 -4 24 -10 0 -12 167 -14 174 -2
12 19 227 23 234 4 4 -13 42 -16 80 -6 24 7 30 24 8 24 -7 0 -20 10 -28 22
-14 21 -22 22 -139 23 -102 0 -124 3 -127 15 -2 13 -31 15 -175 17 -94 1 -249
5 -343 9 -120 4 -174 3 -178 -5z m259 -21 c25 -6 20 -8 -28 -9 -37 -1 -56 3
-52 9 7 11 36 11 80 0z m180 -31 c5 -5 20 -9 35 -9 19 -1 21 -3 10 -9 -21 -12
-153 1 -157 16 -7 22 88 23 112 2z m-534 1 c6 0 7 -4 4 -10 -3 -5 -27 -10 -53
-10 -28 0 -42 4 -36 9 12 12 45 20 62 15 8 -2 18 -4 23 -4z m-660 -148 c-18
-2 -37 0 -42 5 -5 5 11 6 34 3 41 -4 41 -5 8 -8z m360 -59 c1 -7 2 -20 2 -28
0 -33 -4 -37 -23 -32 -16 4 -20 0 -20 -19 0 -17 -6 -24 -20 -24 -16 0 -20 7
-20 35 0 24 5 35 15 35 8 0 15 9 15 19 0 28 49 41 51 14z m-253 -56 c33 -39
-70 -66 -239 -63 -116 2 -127 4 -148 25 -19 19 -21 25 -10 32 17 11 33 11 43
2 4 -5 11 -8 14 -8 4 -1 18 -5 31 -9 15 -5 32 -3 47 5 19 10 29 10 47 1 12 -7
55 -13 95 -15 62 -2 72 0 72 15 0 14 12 25 31 27 4 1 11 -5 17 -12z m812 -28
c7 -23 4 -25 -29 -29 -20 -3 -88 -4 -151 -3 -63 1 -170 2 -238 2 -99 1 -124 4
-128 16 -15 39 -5 40 271 40 l268 0 7 -26z m-1680 -150 c0 -5 -7 -9 -15 -9
-15 0 -20 12 -9 23 8 8 24 -1 24 -14z m63 -104 c1 -5 -6 -11 -15 -13 -11 -2
-18 3 -18 13 0 17 30 18 33 0z m-63 -35 c0 -5 -9 -10 -21 -10 -11 0 -17 5 -14
10 3 6 13 10 21 10 8 0 14 -4 14 -10z m-580 -169 c0 -19 -25 -35 -40 -26 -13
8 -1 33 18 38 10 3 18 5 20 6 1 0 2 -8 2 -18z m60 -61 c0 -5 -7 -10 -15 -10
-8 0 -15 5 -15 10 0 6 7 10 15 10 8 0 15 -4 15 -10z m-205 -40 c-3 -5 -13 -10
-21 -10 -8 0 -14 5 -14 10 0 6 9 10 21 10 11 0 17 -4 14 -10z m2135 -270 l0
-260 -50 0 -50 0 0 260 0 260 50 0 50 0 0 -260z m495 -276 c21 -8 19 -60 -1
-68 -14 -5 -15 -4 -5 8 7 8 11 23 8 33 -4 15 -5 14 -6 -3 -1 -27 -10 -30 -94
-39 -56 -6 -67 -10 -67 -26 0 -15 8 -19 43 -21 l42 -1 -45 -7 -45 -6 35 -6
c19 -3 8 -4 -25 -2 -33 1 -61 3 -62 3 -2 1 -3 19 -3 40 l0 40 -35 -6 c-32 -5
-35 -4 -35 19 0 23 5 26 53 32 28 3 72 7 97 8 43 1 43 2 -15 9 -42 4 -29 5 43
2 56 -2 109 -6 117 -9z m-305 -14 c0 -5 -9 -10 -20 -10 -27 0 -25 -18 3 -23
16 -3 13 -5 -10 -6 -29 -1 -33 2 -33 24 0 21 5 25 30 25 17 0 30 -4 30 -10z
m475 -68 c-3 -3 -11 0 -18 7 -9 10 -8 11 6 5 10 -3 15 -9 12 -12z m-198 -29
c-3 -10 -5 -4 -5 12 0 17 2 24 5 18 2 -7 2 -21 0 -30z m-199 -50 c4 -30 -22
-36 -107 -23 -39 7 -75 9 -81 5 -5 -3 -10 -1 -10 4 0 6 15 12 33 13 l32 1 -35
6 c-29 4 -22 6 35 12 111 10 130 7 133 -18z m492 -18 c0 -34 -1 -35 -39 -35
-33 0 -40 -4 -44 -22 -2 -13 -5 3 -6 35 l-1 57 45 0 c45 0 45 0 45 -35z m-845
-95 c8 -13 -95 -60 -131 -60 -35 0 -56 12 -46 25 24 33 161 61 177 35z m995 0
c0 -5 -9 -10 -21 -10 -11 0 -17 5 -14 10 3 6 13 10 21 10 8 0 14 -4 14 -10z
m-1200 -80 c0 -5 -7 -10 -16 -10 -8 0 -12 5 -9 10 3 6 10 10 16 10 5 0 9 -4 9
-10z m-3 -64 c-9 -7 -29 -11 -43 -8 -34 6 -11 22 31 22 27 -1 28 -2 12 -14z
m-197 -36 c0 -5 -9 -10 -20 -10 -11 0 -20 5 -20 10 0 6 9 10 20 10 11 0 20 -4
20 -10z m-433 -217 c4 -12 -35 -29 -44 -19 -8 8 18 37 30 33 6 -2 12 -8 14
-14z"/>
<path d="M6577 10508 c-8 -5 -7 -11 2 -22 10 -12 18 -13 39 -5 15 6 66 13 115
16 48 3 85 8 82 11 -8 8 -225 8 -238 0z"/>
<path d="M6899 10473 c-1 -5 -1 -11 0 -15 2 -12 -37 -9 -45 3 -4 8 -30 10 -77
6 -89 -7 -108 -23 -30 -25 32 -1 70 -5 84 -8 25 -5 26 -8 21 -50 l-5 -44 114
0 c153 0 289 18 289 38 0 12 -11 14 -60 9 -33 -3 -60 -2 -60 2 0 13 -44 27
-82 25 -37 -1 -51 9 -25 19 9 4 8 8 -3 16 -8 6 -10 11 -5 12 6 0 -1 5 -15 9
-33 10 -100 12 -101 3z"/>
<path d="M7128 10433 c6 -2 18 -2 25 0 6 3 1 5 -13 5 -14 0 -19 -2 -12 -5z"/>
<path d="M11575 10415 c-66 -7 -148 -13 -182 -14 -34 -1 -68 -4 -77 -7 -8 -3
-30 -29 -48 -57 -17 -29 -75 -117 -127 -197 -219 -335 -454 -760 -586 -1060
-20 -47 -52 -118 -71 -158 -19 -40 -34 -77 -34 -81 0 -5 -16 -43 -35 -84 -19
-41 -35 -79 -35 -84 0 -5 -11 -24 -25 -43 -32 -43 -31 -52 3 -88 43 -46 84
-98 98 -123 7 -13 22 -35 34 -49 58 -69 108 -137 114 -158 4 -13 20 -38 35
-55 30 -36 100 -149 147 -238 17 -33 38 -67 46 -77 8 -9 32 -51 53 -92 21 -41
44 -86 52 -100 42 -77 113 -221 113 -232 0 -12 79 -200 101 -240 5 -10 9 -23
9 -28 0 -6 8 -30 19 -53 10 -23 22 -58 26 -77 4 -19 17 -55 28 -80 11 -25 25
-67 32 -95 8 -27 23 -86 35 -130 12 -44 31 -120 41 -170 24 -111 35 -158 48
-212 6 -23 15 -82 20 -130 5 -49 19 -144 31 -213 19 -109 34 -331 40 -580 1
-49 3 -60 10 -43 11 28 37 269 45 423 10 196 53 529 95 745 48 244 66 328 110
490 10 39 22 81 25 95 44 168 156 523 205 650 12 30 30 78 40 105 42 116 156
381 226 521 41 83 74 156 74 162 0 6 12 20 26 31 l27 21 1783 0 c1771 0 1784
0 1804 20 20 20 20 33 20 910 l0 890 -2137 -2 c-1630 -1 -2167 -4 -2258 -13z"/>
<path d="M7280 10400 c0 -5 19 -10 43 -10 31 0 38 3 27 10 -20 13 -70 13 -70
0z"/>
<path d="M7359 10379 c-12 -7 96 -47 156 -57 72 -13 84 -3 29 25 -48 25 -164
45 -185 32z"/>
<path d="M7645 10310 c3 -5 13 -10 21 -10 8 0 14 5 14 10 0 6 -9 10 -21 10
-11 0 -17 -4 -14 -10z"/>
<path d="M7378 10298 c-10 -26 4 -38 42 -38 38 0 67 21 55 40 -9 14 -92 13
-97 -2z"/>
<path d="M7736 10282 c-3 -5 6 -12 19 -15 14 -2 28 0 31 4 3 5 1 9 -5 9 -5 0
-16 3 -24 6 -8 3 -18 1 -21 -4z"/>
<path d="M7801 10235 c-20 -7 -29 -15 -23 -19 15 -9 122 15 116 26 -7 11 -53
8 -93 -7z"/>
<path d="M7920 10190 c0 -5 6 -10 14 -10 8 0 18 5 21 10 3 6 -3 10 -14 10 -12
0 -21 -4 -21 -10z"/>
<path d="M8045 10170 c3 -5 13 -10 21 -10 8 0 14 5 14 10 0 6 -9 10 -21 10
-11 0 -17 -4 -14 -10z"/>
<path d="M8145 10130 c3 -5 10 -10 16 -10 5 0 9 5 9 10 0 6 -7 10 -16 10 -8 0
-12 -4 -9 -10z"/>
<path d="M8410 10003 c0 -5 21 -15 47 -23 26 -7 59 -19 73 -27 50 -26 44 -12
-8 17 -55 32 -112 49 -112 33z"/>
<path d="M8366 9945 c-9 -9 -16 -20 -16 -25 0 -16 40 -31 61 -25 25 8 21 33
-7 52 -19 12 -24 12 -38 -2z"/>
<path d="M8677 9862 c-22 -2 -41 -10 -44 -18 -7 -20 5 -30 43 -37 26 -5 33 -2
44 19 17 31 6 40 -43 36z"/>
<path d="M8784 9815 c15 -14 35 -25 44 -25 13 1 9 7 -13 25 -40 33 -66 33 -31
0z"/>
<path d="M8910 9736 c0 -9 7 -16 16 -16 9 0 14 5 12 12 -6 18 -28 21 -28 4z"/>
<path d="M8800 9680 c0 -5 5 -10 10 -10 6 0 10 5 10 10 0 6 -4 10 -10 10 -5 0
-10 -4 -10 -10z"/>
<path d="M9055 9650 c3 -5 13 -10 21 -10 8 0 12 5 9 10 -3 6 -13 10 -21 10 -8
0 -12 -4 -9 -10z"/>
<path d="M9580 9214 c0 -8 5 -12 10 -9 6 4 8 11 5 16 -9 14 -15 11 -15 -7z"/>
<path d="M6720 9056 c0 -9 -8 -16 -17 -17 -14 0 -15 -2 -3 -6 8 -3 18 -10 21
-15 8 -13 74 -21 105 -14 18 5 24 13 24 35 0 27 -1 28 -65 30 -53 2 -65 -1
-65 -13z"/>
<path d="M9910 8980 c0 -5 5 -10 11 -10 5 0 7 5 4 10 -3 6 -8 10 -11 10 -2 0
-4 -4 -4 -10z"/>
<path d="M7245 8960 c3 -5 29 -10 57 -10 60 0 59 -7 -3 -19 -40 -8 -41 -9 -11
-10 52 -2 37 -20 -20 -24 l-53 -3 53 -2 c28 -1 52 -6 52 -12 0 -14 46 -12 58
3 7 8 6 19 -3 37 -7 13 -11 30 -8 37 4 10 -11 13 -62 13 -41 0 -64 -4 -60 -10z"/>
<path d="M9972 8919 c2 -7 10 -15 17 -17 8 -3 12 1 9 9 -2 7 -10 15 -17 17 -8
3 -12 -1 -9 -9z"/>
<path d="M6750 8900 c0 -11 65 -24 79 -15 24 14 9 25 -34 25 -25 0 -45 -4 -45
-10z"/>
<path d="M6917 8786 c-7 -18 1 -26 28 -26 24 0 49 22 38 33 -12 13 -61 7 -66
-7z"/>
<path d="M7084 8775 c-7 -17 4 -37 17 -30 12 8 12 45 -1 45 -6 0 -13 -7 -16
-15z"/>
<path d="M7234 8767 c-9 -23 4 -37 32 -37 30 0 28 17 -4 38 -19 13 -22 12 -28
-1z"/>
<path d="M7100 8720 c0 -16 35 -29 51 -19 12 8 12 10 -1 19 -19 13 -50 13 -50
0z"/>
<path d="M7333 8722 c-18 -2 -33 -7 -33 -13 0 -5 -8 -9 -19 -9 -10 0 -29 -9
-43 -19 -13 -11 -38 -23 -54 -26 -56 -13 -64 -17 -59 -26 4 -5 26 -9 51 -9 36
0 44 3 44 18 0 14 17 22 71 37 38 11 75 23 82 27 19 12 -5 24 -40 20z"/>
<path d="M7009 8703 c-1 -5 -1 -11 0 -15 0 -5 -7 -8 -16 -9 -14 0 -13 -3 6
-12 19 -9 26 -8 35 4 6 9 20 21 31 27 18 10 16 11 -17 12 -21 0 -39 -3 -39 -7z"/>
<path d="M7333 8621 c-9 -12 -26 -21 -37 -21 -15 0 -17 -3 -8 -12 8 -8 15 -8
24 0 7 5 27 12 43 14 18 2 30 9 30 18 0 23 -32 24 -52 1z"/>
<path d="M7400 8530 c0 -5 7 -10 15 -10 8 0 15 5 15 10 0 6 -7 10 -15 10 -8 0
-15 -4 -15 -10z"/>
<path d="M7508 8502 c-24 -5 -23 -18 2 -25 22 -6 49 18 28 25 -7 2 -21 3 -30
0z"/>
<path d="M7757 8463 c-4 -3 -7 -12 -7 -20 0 -9 15 -13 50 -13 54 0 68 16 23
26 -16 3 -35 8 -44 10 -8 2 -18 1 -22 -3z"/>
<path d="M7663 8423 c9 -2 23 -2 30 0 6 3 -1 5 -18 5 -16 0 -22 -2 -12 -5z"/>
<path d="M7890 8395 c0 -10 7 -15 18 -13 21 4 19 22 -2 26 -10 2 -16 -3 -16
-13z"/>
<path d="M7790 8362 c0 -12 54 -35 74 -30 9 2 12 8 8 15 -9 15 -82 29 -82 15z"/>
<path d="M8225 8240 c-3 -5 -15 -10 -26 -10 -10 0 -19 -5 -19 -11 0 -8 13 -9
42 -5 46 8 58 13 58 27 0 12 -47 12 -55 -1z"/>
<path d="M8315 8189 c-10 -15 3 -25 16 -12 7 7 7 13 1 17 -6 3 -14 1 -17 -5z"/>
<path d="M8100 8179 c0 -5 15 -16 34 -24 19 -8 37 -19 41 -25 8 -13 45 -13 45
0 0 6 -3 10 -7 11 -31 3 -48 10 -67 28 -24 23 -46 27 -46 10z"/>
<path d="M8280 8070 c0 -5 7 -10 16 -10 8 0 12 5 9 10 -3 6 -10 10 -16 10 -5
0 -9 -4 -9 -10z"/>
<path d="M8375 7990 c3 -5 13 -10 21 -10 8 0 14 5 14 10 0 6 -9 10 -21 10 -11
0 -17 -4 -14 -10z"/>
<path d="M8495 7971 c-7 -12 12 -24 25 -16 11 7 4 25 -10 25 -5 0 -11 -4 -15
-9z"/>
</g>
</svg>
